<svg width="10" height="14" viewBox="0 0 10 14" fill="none" xmlns="http://www.w3.org/2000/svg">
<path d="M4.98471 0C6.76954 0 8.47678 0.928156 9.33038 2.55249C10.184 4.09943 10.2616 5.95579 9.33033 7.50277V7.58011L5.9935 13.3812C5.82895 13.6546 5.58685 13.8507 5.32201 13.9421C5.14253 14.0041 4.98472 13.8461 4.98473 13.6562L4.98473 13.6483C4.98475 13.4153 5.22125 13.2154 5.29514 12.9945L8.63197 7.2707V7.19336C9.40797 5.87844 9.40797 4.25411 8.63197 2.9392C7.93352 1.70163 6.53671 0.850814 4.98471 0.850814C4.20871 0.850814 3.43271 1.08284 2.73431 1.4696C0.794282 2.62983 0.173472 5.337 1.41509 7.34804L1.88318 8.26992C1.95286 8.40715 1.92637 8.57363 1.81754 8.68246C1.65536 8.84464 1.38434 8.81319 1.26361 8.61819L0.716686 7.7348C-0.680124 5.337 0.0182812 2.16573 2.34628 0.773471C3.12228 0.309371 4.05348 0 4.98471 0Z" fill="#5E6063"/>
<path d="M4.9847 3.17139C3.89827 3.17139 3.04468 4.0222 3.04468 5.10509C3.04468 6.18797 3.89827 7.03879 4.9847 7.03879C6.07113 7.03879 6.92473 6.18797 6.92473 5.10509C6.92473 4.0222 6.07113 3.17139 4.9847 3.17139ZM4.9847 6.26527C4.36389 6.26527 3.82068 5.72383 3.82068 5.10504C3.82068 4.48626 4.36389 3.94481 4.9847 3.94481C5.60551 3.94481 6.14873 4.48626 6.14873 5.10504C6.14873 5.72383 5.60551 6.26527 4.9847 6.26527Z" fill="#5E6063"/>
</svg>
