<svg width="16" height="14" viewBox="0 0 16 14" fill="none" xmlns="http://www.w3.org/2000/svg">
<path d="M15.75 1.65739C15.1707 1.93836 14.5475 2.1284 13.894 2.21327C14.5612 1.776 15.0733 1.0841 15.315 0.258307C14.6906 0.663428 13.9988 0.957319 13.2631 1.11573C12.6736 0.429107 11.8338 -3.21752e-08 10.9039 -3.21752e-08C9.11966 -3.21752e-08 7.67258 1.58279 7.67258 3.53433C7.67258 3.81135 7.70125 4.08099 7.75668 4.33983C5.07119 4.19249 2.69006 2.7855 1.09622 0.646559C0.818129 1.16845 0.6586 1.776 0.6586 2.42361C0.6586 3.64951 1.22948 4.73177 2.09605 5.36541C1.56661 5.34723 1.06803 5.18829 0.632574 4.92287C0.632333 4.93789 0.632333 4.95291 0.632333 4.96767C0.632333 6.68015 1.74663 8.10848 3.22456 8.43295C2.9537 8.51413 2.66765 8.55709 2.37342 8.55709C2.16473 8.55709 1.96254 8.53522 1.76542 8.4941C2.17654 9.89792 3.36963 10.9198 4.78394 10.9485C3.67784 11.8966 2.28474 12.4615 0.770414 12.4615C0.510155 12.4615 0.252307 12.4449 1.54437e-07 12.4119C1.42926 13.4151 3.12817 14 4.95287 14C10.8964 14 14.1468 8.61455 14.1468 3.94367C14.1468 3.79053 14.1436 3.63792 14.1374 3.48662C14.7692 2.98846 15.317 2.36615 15.75 1.65739Z" fill="white"/>
</svg>
