<svg width="13" height="13" viewBox="0 0 13 13" fill="none" xmlns="http://www.w3.org/2000/svg">
<path d="M10.274 8.05306C10.0079 7.77594 9.68688 7.62778 9.34666 7.62778C9.00918 7.62778 8.68542 7.7732 8.4083 8.05031L7.54128 8.91459C7.46994 8.87618 7.3986 8.84051 7.33001 8.80484C7.23124 8.75546 7.13795 8.70881 7.05838 8.65942C6.24623 8.1436 5.50817 7.47139 4.80028 6.60162C4.45732 6.16811 4.22684 5.80319 4.05947 5.43279C4.28446 5.22701 4.49298 5.01299 4.69602 4.80721C4.77285 4.73039 4.84967 4.65082 4.9265 4.574C5.50268 3.99781 5.50268 3.25151 4.9265 2.67533L4.17745 1.92629C4.0924 1.84123 4.0046 1.75343 3.92229 1.66563C3.75766 1.49552 3.58481 1.31992 3.40646 1.1553C3.14032 0.891899 2.82205 0.751968 2.48731 0.751968C2.15257 0.751968 1.82881 0.891899 1.55444 1.1553C1.5517 1.15804 1.5517 1.15804 1.54895 1.16079L0.616081 2.10189C0.264882 2.45309 0.0645893 2.88111 0.0206895 3.37773C-0.0451602 4.1789 0.190801 4.9252 0.371888 5.41358C0.816374 6.6126 1.48036 7.72381 2.47085 8.91459C3.67261 10.3496 5.11856 11.4827 6.77029 12.2812C7.40135 12.5802 8.24368 12.9342 9.18478 12.9945C9.2424 12.9973 9.30276 13 9.35763 13C9.99144 13 10.5237 12.7723 10.9408 12.3196C10.9435 12.3141 10.949 12.3113 10.9517 12.3059C11.0944 12.133 11.259 11.9766 11.4319 11.8092C11.5499 11.6967 11.6706 11.5788 11.7886 11.4553C12.0602 11.1727 12.2029 10.8434 12.2029 10.506C12.2029 10.1657 12.0575 9.83923 11.7804 9.56486L10.274 8.05306ZM11.2563 10.9422C11.2536 10.9422 11.2536 10.945 11.2563 10.9422C11.1493 11.0575 11.0395 11.1617 10.9216 11.277C10.7432 11.4471 10.5621 11.6254 10.392 11.8257C10.1149 12.122 9.7884 12.262 9.36038 12.262C9.31922 12.262 9.27532 12.262 9.23417 12.2592C8.41928 12.2071 7.662 11.8888 7.09405 11.6172C5.54109 10.8654 4.17745 9.79808 3.04429 8.44541C2.10868 7.31774 1.4831 6.27512 1.0688 5.15567C0.81363 4.47248 0.720343 3.94019 0.761499 3.43809C0.788936 3.11707 0.912405 2.85093 1.14014 2.6232L2.07575 1.68758C2.21019 1.56137 2.35287 1.49278 2.4928 1.49278C2.66565 1.49278 2.80558 1.59704 2.89338 1.68484C2.89613 1.68758 2.89887 1.69033 2.90162 1.69307C3.06898 1.84946 3.22812 2.01134 3.39549 2.1842C3.48054 2.272 3.56834 2.3598 3.65614 2.45034L4.40518 3.19938C4.69602 3.49022 4.69602 3.75911 4.40518 4.04994C4.32562 4.12951 4.24879 4.20908 4.16922 4.2859C3.93875 4.52187 3.71925 4.74136 3.48054 4.95538C3.47506 4.96086 3.46957 4.96361 3.46683 4.9691C3.23086 5.20506 3.27476 5.43553 3.32415 5.59192C3.32689 5.60016 3.32964 5.60839 3.33238 5.61662C3.52719 6.08854 3.80156 6.53303 4.21861 7.06257L4.22135 7.06531C4.97863 7.99818 5.77705 8.72527 6.65779 9.28225C6.77029 9.35359 6.88552 9.41121 6.99527 9.46608C7.09405 9.51547 7.18734 9.56211 7.2669 9.6115C7.27788 9.61699 7.28885 9.62522 7.29983 9.63071C7.39312 9.67735 7.48092 9.6993 7.57146 9.6993C7.79919 9.6993 7.94186 9.55663 7.98851 9.50998L8.92687 8.57162C9.02015 8.47834 9.16832 8.36584 9.34117 8.36584C9.51128 8.36584 9.65121 8.47285 9.73627 8.56614C9.73901 8.56888 9.73901 8.56888 9.74176 8.57162L11.2536 10.0834C11.5362 10.3633 11.5362 10.6514 11.2563 10.9422Z" fill="#4C4C4C"/>
<path d="M7.02547 3.09234C7.74433 3.21306 8.39734 3.55329 8.91865 4.0746C9.43996 4.59591 9.77744 5.24892 9.9009 5.96778C9.93108 6.14886 10.0875 6.27507 10.2658 6.27507C10.2878 6.27507 10.307 6.27233 10.3289 6.26959C10.532 6.23666 10.6664 6.0446 10.6335 5.84156C10.4853 4.9718 10.0738 4.17886 9.44544 3.55054C8.81713 2.92223 8.02419 2.51066 7.15443 2.3625C6.95139 2.32958 6.76207 2.46402 6.7264 2.66431C6.69074 2.86461 6.82243 3.05941 7.02547 3.09234Z" fill="#4C4C4C"/>
<path d="M12.9848 5.73459C12.7407 4.30236 12.0657 2.99908 11.0286 1.96195C9.99143 0.924815 8.68815 0.249855 7.25592 0.00566228C7.05563 -0.0300063 6.86631 0.107181 6.83064 0.307474C6.79771 0.51051 6.93216 0.699828 7.13519 0.735497C8.41378 0.952252 9.57987 1.55862 10.5072 2.48326C11.4346 3.41064 12.0383 4.57673 12.255 5.85531C12.2852 6.0364 12.4416 6.16261 12.6199 6.16261C12.6419 6.16261 12.6611 6.15987 12.683 6.15713C12.8833 6.12694 13.0205 5.93488 12.9848 5.73459Z" fill="#4C4C4C"/>
</svg>
