<svg width="60" height="60" viewBox="0 0 60 60" fill="none" xmlns="http://www.w3.org/2000/svg">
<circle cx="30" cy="30" r="30" fill="#6B82C7"/>
<path d="M38.2209 13.0071L33.9287 13C29.1067 13 25.9904 16.2842 25.9904 21.3674V25.2254H21.6749C21.302 25.2254 21 25.536 21 25.919V31.5088C21 31.8918 21.3023 32.202 21.6749 32.202H25.9904V46.3067C25.9904 46.6898 26.2924 47 26.6653 47H32.2959C32.6688 47 32.9708 46.6894 32.9708 46.3067V32.202H38.0167C38.3896 32.202 38.6916 31.8918 38.6916 31.5088L38.6936 25.919C38.6936 25.7351 38.6224 25.559 38.496 25.4288C38.3696 25.2986 38.1975 25.2254 38.0184 25.2254H32.9708V21.955C32.9708 20.3831 33.3355 19.5851 35.3288 19.5851L38.2202 19.584C38.5928 19.584 38.8947 19.2735 38.8947 18.8907V13.7004C38.8947 13.318 38.5931 13.0078 38.2209 13.0071Z" fill="white"/>
</svg>
