<svg width="60" height="60" viewBox="0 0 60 60" fill="none" xmlns="http://www.w3.org/2000/svg">
<circle cx="30" cy="30" r="30" fill="#F5F5F5"/>
<path d="M19.4 24.2V23H18.6V24.2H17V24.8H18.6V26H19.4V24.8H21V24.2H19.4Z" fill="white"/>
<g clip-path="url(#clip0)">
<path d="M21.6486 33.1293L20.6044 37.0277L16.7876 37.1084C15.647 34.9928 15 32.5722 15 29.9999C15 27.5126 15.6049 25.1669 16.6772 23.1016H16.678L20.076 23.7245L21.5645 27.1021C21.2529 28.0104 21.0831 28.9854 21.0831 29.9999C21.0833 31.101 21.2827 32.156 21.6486 33.1293Z" fill="#FDBA00"/>
<path d="M44.7377 27.1978C44.91 28.1051 44.9998 29.0422 44.9998 29.9999C44.9998 31.0738 44.8869 32.1214 44.6718 33.1318C43.9416 36.5703 42.0336 39.5728 39.3905 41.6975L39.3897 41.6967L35.1098 41.4783L34.504 37.6969C36.2579 36.6684 37.6285 35.0587 38.3505 33.1318H30.3296V27.1978H38.4675H44.7377Z" fill="#5290FD"/>
<path d="M39.3898 41.6967L39.3906 41.6975C36.82 43.7637 33.5546 45 30 45C24.2876 45 19.3211 41.8071 16.7876 37.1085L21.6486 33.1294C22.9153 36.5101 26.1766 38.9168 30 38.9168C31.6433 38.9168 33.1829 38.4725 34.5041 37.697L39.3898 41.6967Z" fill="#28B545"/>
<path d="M39.5745 18.4533L34.7152 22.4315C33.3479 21.5769 31.7316 21.0832 30.0001 21.0832C26.0902 21.0832 22.7679 23.6002 21.5646 27.1022L16.6781 23.1016H16.6772C19.1737 18.2884 24.2028 15 30.0001 15C33.6396 15 36.9767 16.2964 39.5745 18.4533Z" fill="#F04534"/>
</g>
<defs>
<clipPath id="clip0">
<rect width="30" height="30" fill="white" transform="translate(15 15)"/>
</clipPath>
</defs>
</svg>
