<svg width="145" height="34" viewBox="0 0 145 34" fill="none" xmlns="http://www.w3.org/2000/svg">
<mask id="mask0" mask-type="alpha" maskUnits="userSpaceOnUse" x="45" y="7" width="99" height="21">
<path d="M51.16 11.94C51.8667 11.94 52.42 12.0467 52.82 12.26C53.22 12.4733 53.42 12.74 53.42 13.06C53.42 13.1533 53.4133 13.22 53.4 13.26C53.28 13.6867 53.0133 13.9 52.6 13.9C52.5333 13.9 52.4333 13.8867 52.3 13.86C51.7667 13.7667 51.3333 13.72 51 13.72C50.04 13.72 49.2667 13.94 48.68 14.38C48.0933 14.82 47.8 15.4133 47.8 16.16V22C47.8 22.32 47.7133 22.5667 47.54 22.74C47.38 22.9133 47.1333 23 46.8 23C46.48 23 46.2333 22.92 46.06 22.76C45.8867 22.5867 45.8 22.3333 45.8 22V13.06C45.8 12.74 45.8867 12.4933 46.06 12.32C46.2333 12.1467 46.48 12.06 46.8 12.06C47.4667 12.06 47.8 12.3933 47.8 13.06V13.44C48.2 12.9733 48.6933 12.6067 49.28 12.34C49.8667 12.0733 50.4933 11.94 51.16 11.94ZM64.5458 17.36C64.5458 17.6133 64.4591 17.8267 64.2858 18C64.1124 18.16 63.8924 18.24 63.6258 18.24H56.0258C56.1724 19.1733 56.5924 19.9267 57.2858 20.5C57.9924 21.0733 58.8524 21.36 59.8658 21.36C60.2658 21.36 60.6791 21.2867 61.1058 21.14C61.5458 20.9933 61.9058 20.8133 62.1858 20.6C62.3724 20.4533 62.5924 20.38 62.8458 20.38C63.0991 20.38 63.2991 20.4467 63.4458 20.58C63.6858 20.78 63.8058 21.0067 63.8058 21.26C63.8058 21.5 63.6991 21.7 63.4858 21.86C63.0324 22.22 62.4658 22.5133 61.7858 22.74C61.1191 22.9667 60.4791 23.08 59.8658 23.08C58.7724 23.08 57.7924 22.8467 56.9258 22.38C56.0591 21.9 55.3791 21.24 54.8858 20.4C54.4058 19.56 54.1658 18.6067 54.1658 17.54C54.1658 16.4733 54.3924 15.52 54.8458 14.68C55.3124 13.8267 55.9524 13.1667 56.7658 12.7C57.5924 12.22 58.5258 11.98 59.5658 11.98C60.5924 11.98 61.4791 12.2067 62.2258 12.66C62.9724 13.1133 63.5458 13.7467 63.9458 14.56C64.3458 15.3733 64.5458 16.3067 64.5458 17.36ZM59.5658 13.7C58.5924 13.7 57.7991 13.9667 57.1858 14.5C56.5858 15.0333 56.2058 15.7467 56.0458 16.64H62.7058C62.5858 15.7467 62.2524 15.0333 61.7058 14.5C61.1591 13.9667 60.4458 13.7 59.5658 13.7ZM72.5877 11.96C73.5077 11.96 74.3343 12.16 75.0677 12.56C75.801 12.96 76.3743 13.5467 76.7877 14.32C77.201 15.08 77.4077 16 77.4077 17.08V22C77.4077 22.2933 77.3077 22.54 77.1077 22.74C76.921 22.9267 76.681 23.02 76.3877 23.02C76.0943 23.02 75.8477 22.9267 75.6477 22.74C75.461 22.54 75.3677 22.2933 75.3677 22V17.08C75.3677 16 75.0743 15.1867 74.4877 14.64C73.9143 14.08 73.1477 13.8 72.1877 13.8C71.6277 13.8 71.1143 13.9133 70.6477 14.14C70.1943 14.3667 69.8343 14.6733 69.5677 15.06C69.3143 15.4467 69.1877 15.88 69.1877 16.36V22C69.1877 22.2933 69.0943 22.54 68.9077 22.74C68.721 22.9267 68.4743 23.02 68.1677 23.02C67.8743 23.02 67.6277 22.9267 67.4277 22.74C67.241 22.54 67.1477 22.2933 67.1477 22V13.08C67.1477 12.7733 67.241 12.5267 67.4277 12.34C67.6277 12.1533 67.8743 12.06 68.1677 12.06C68.4743 12.06 68.721 12.1533 68.9077 12.34C69.0943 12.5267 69.1877 12.7733 69.1877 13.08V13.3C69.6143 12.8733 70.121 12.5467 70.7077 12.32C71.2943 12.08 71.921 11.96 72.5877 11.96ZM85.4405 21C85.6805 21 85.8805 21.0933 86.0405 21.28C86.2138 21.4667 86.3005 21.7067 86.3005 22C86.3005 22.2933 86.1871 22.5333 85.9605 22.72C85.7471 22.9067 85.4671 23 85.1205 23H84.7605C84.1071 23 83.5071 22.8333 82.9605 22.5C82.4271 22.1533 82.0071 21.6867 81.7005 21.1C81.3938 20.5133 81.2405 19.8533 81.2405 19.12V14.18H80.3205C80.0405 14.18 79.8138 14.1 79.6405 13.94C79.4671 13.78 79.3805 13.58 79.3805 13.34C79.3805 13.0733 79.4671 12.86 79.6405 12.7C79.8138 12.54 80.0405 12.46 80.3205 12.46H81.2405V9.58C81.2405 9.28667 81.3338 9.04667 81.5205 8.86C81.7071 8.67333 81.9471 8.58 82.2405 8.58C82.5338 8.58 82.7738 8.67333 82.9605 8.86C83.1471 9.04667 83.2405 9.28667 83.2405 9.58V12.46H84.9405C85.2205 12.46 85.4471 12.54 85.6205 12.7C85.7938 12.86 85.8805 13.0733 85.8805 13.34C85.8805 13.58 85.7938 13.78 85.6205 13.94C85.4471 14.1 85.2205 14.18 84.9405 14.18H83.2405V19.12C83.2405 19.6533 83.3871 20.1 83.6805 20.46C83.9738 20.82 84.3338 21 84.7605 21H85.4405ZM94.2478 11.96C95.1678 11.96 95.9945 12.16 96.7278 12.56C97.4611 12.96 98.0345 13.5467 98.4478 14.32C98.8611 15.08 99.0678 16 99.0678 17.08V22C99.0678 22.2933 98.9678 22.54 98.7678 22.74C98.5811 22.9267 98.3411 23.02 98.0478 23.02C97.7545 23.02 97.5078 22.9267 97.3078 22.74C97.1211 22.54 97.0278 22.2933 97.0278 22V17.08C97.0278 16 96.7345 15.1867 96.1478 14.64C95.5745 14.08 94.8078 13.8 93.8478 13.8C93.2878 13.8 92.7745 13.9133 92.3078 14.14C91.8545 14.3667 91.4945 14.6733 91.2278 15.06C90.9745 15.4467 90.8478 15.88 90.8478 16.36V22C90.8478 22.2933 90.7545 22.54 90.5678 22.74C90.3811 22.9267 90.1345 23.02 89.8278 23.02C89.5345 23.02 89.2878 22.9267 89.0878 22.74C88.9011 22.54 88.8078 22.2933 88.8078 22V8.4C88.8078 8.09333 88.9011 7.84667 89.0878 7.66C89.2878 7.47333 89.5345 7.38 89.8278 7.38C90.1345 7.38 90.3811 7.47333 90.5678 7.66C90.7545 7.84667 90.8478 8.09333 90.8478 8.4V13.3C91.2745 12.8733 91.7811 12.5467 92.3678 12.32C92.9545 12.08 93.5811 11.96 94.2478 11.96ZM102.66 13.08C102.66 12.7733 102.753 12.5267 102.94 12.34C103.14 12.1533 103.387 12.06 103.68 12.06C103.987 12.06 104.233 12.1533 104.42 12.34C104.607 12.5267 104.7 12.7733 104.7 13.08V21.98C104.7 22.2733 104.607 22.52 104.42 22.72C104.233 22.9067 103.987 23 103.68 23C103.387 23 103.14 22.9067 102.94 22.72C102.753 22.52 102.66 22.2733 102.66 21.98V13.08ZM103.68 7.64C104.04 7.64 104.347 7.77333 104.6 8.04C104.867 8.29333 105 8.6 105 8.96C105 9.32 104.867 9.63333 104.6 9.9C104.347 10.1533 104.04 10.28 103.68 10.28C103.32 10.28 103.007 10.1533 102.74 9.9C102.487 9.63333 102.36 9.32 102.36 8.96C102.36 8.6 102.487 8.29333 102.74 8.04C103.007 7.77333 103.32 7.64 103.68 7.64ZM113.935 11.96C114.855 11.96 115.682 12.16 116.415 12.56C117.149 12.96 117.722 13.5467 118.135 14.32C118.549 15.08 118.755 16 118.755 17.08V22C118.755 22.2933 118.655 22.54 118.455 22.74C118.269 22.9267 118.029 23.02 117.735 23.02C117.442 23.02 117.195 22.9267 116.995 22.74C116.809 22.54 116.715 22.2933 116.715 22V17.08C116.715 16 116.422 15.1867 115.835 14.64C115.262 14.08 114.495 13.8 113.535 13.8C112.975 13.8 112.462 13.9133 111.995 14.14C111.542 14.3667 111.182 14.6733 110.915 15.06C110.662 15.4467 110.535 15.88 110.535 16.36V22C110.535 22.2933 110.442 22.54 110.255 22.74C110.069 22.9267 109.822 23.02 109.515 23.02C109.222 23.02 108.975 22.9267 108.775 22.74C108.589 22.54 108.495 22.2933 108.495 22V13.08C108.495 12.7733 108.589 12.5267 108.775 12.34C108.975 12.1533 109.222 12.06 109.515 12.06C109.822 12.06 110.069 12.1533 110.255 12.34C110.442 12.5267 110.535 12.7733 110.535 13.08V13.3C110.962 12.8733 111.469 12.5467 112.055 12.32C112.642 12.08 113.269 11.96 113.935 11.96ZM127.088 11.98C128.141 11.98 129.081 12.22 129.908 12.7C130.748 13.1667 131.401 13.82 131.868 14.66C132.348 15.5 132.588 16.46 132.588 17.54V21.86C132.588 22.9133 132.355 23.8733 131.888 24.74C131.421 25.6067 130.761 26.2867 129.908 26.78C129.068 27.2867 128.115 27.54 127.048 27.54C126.088 27.54 125.195 27.3467 124.368 26.96C123.541 26.5867 122.848 26.0467 122.288 25.34C122.141 25.1533 122.068 24.9667 122.068 24.78C122.068 24.5 122.208 24.26 122.488 24.06C122.675 23.94 122.861 23.88 123.048 23.88C123.381 23.88 123.655 24.02 123.868 24.3C124.228 24.7667 124.681 25.12 125.228 25.36C125.775 25.6133 126.395 25.74 127.088 25.74C127.741 25.74 128.335 25.58 128.868 25.26C129.401 24.9533 129.828 24.4933 130.148 23.88C130.468 23.28 130.628 22.56 130.628 21.72V20.74C130.215 21.4733 129.668 22.0467 128.988 22.46C128.308 22.8733 127.541 23.08 126.688 23.08C125.701 23.08 124.815 22.8467 124.028 22.38C123.255 21.9 122.648 21.24 122.208 20.4C121.781 19.56 121.568 18.6067 121.568 17.54C121.568 16.46 121.801 15.5 122.268 14.66C122.735 13.82 123.388 13.1667 124.228 12.7C125.068 12.22 126.021 11.98 127.088 11.98ZM127.088 21.28C127.768 21.28 128.375 21.12 128.908 20.8C129.455 20.48 129.875 20.04 130.168 19.48C130.475 18.9067 130.628 18.26 130.628 17.54C130.628 16.82 130.475 16.1733 130.168 15.6C129.875 15.0267 129.455 14.58 128.908 14.26C128.375 13.94 127.768 13.78 127.088 13.78C126.408 13.78 125.795 13.94 125.248 14.26C124.715 14.58 124.295 15.0267 123.988 15.6C123.681 16.1733 123.528 16.82 123.528 17.54C123.528 18.26 123.681 18.9067 123.988 19.48C124.295 20.04 124.715 20.48 125.248 20.8C125.795 21.12 126.408 21.28 127.088 21.28ZM139.464 11.98C140.331 11.98 141.104 12.12 141.784 12.4C142.478 12.68 143.024 13.0667 143.424 13.56C143.598 13.7733 143.684 13.9867 143.684 14.2C143.684 14.4267 143.571 14.6333 143.344 14.82C143.198 14.9267 143.011 14.98 142.784 14.98C142.438 14.98 142.124 14.8533 141.844 14.6C141.511 14.2933 141.158 14.08 140.784 13.96C140.411 13.8267 139.958 13.76 139.424 13.76C138.811 13.76 138.304 13.8667 137.904 14.08C137.518 14.28 137.324 14.5667 137.324 14.94C137.324 15.2067 137.391 15.4333 137.524 15.62C137.658 15.7933 137.911 15.96 138.284 16.12C138.658 16.2667 139.198 16.4133 139.904 16.56C141.358 16.8533 142.384 17.26 142.984 17.78C143.598 18.3 143.904 18.9733 143.904 19.8C143.904 20.4133 143.738 20.9733 143.404 21.48C143.071 21.9733 142.578 22.3667 141.924 22.66C141.284 22.94 140.511 23.08 139.604 23.08C138.698 23.08 137.844 22.94 137.044 22.66C136.244 22.38 135.618 22.0133 135.164 21.56C134.991 21.3867 134.904 21.18 134.904 20.94C134.904 20.62 135.038 20.36 135.304 20.16C135.558 19.9733 135.791 19.88 136.004 19.88C136.271 19.88 136.524 20 136.764 20.24C137.018 20.52 137.398 20.7667 137.904 20.98C138.411 21.18 138.951 21.28 139.524 21.28C140.284 21.28 140.871 21.1533 141.284 20.9C141.711 20.6467 141.924 20.3067 141.924 19.88C141.924 19.4667 141.718 19.1267 141.304 18.86C140.891 18.58 140.191 18.3467 139.204 18.16C136.644 17.6667 135.364 16.6133 135.364 15C135.364 14.3467 135.558 13.7933 135.944 13.34C136.331 12.8867 136.838 12.5467 137.464 12.32C138.091 12.0933 138.758 11.98 139.464 11.98Z" fill="black"/>
</mask>
<g mask="url(#mask0)">
<rect x="42" y="-15" width="62" height="49" fill="#F29E50"/>
<rect x="78" y="-15" width="69" height="49" fill="#7B369F"/>
</g>
<g clip-path="url(#clip0)">
<path d="M2.65192 24.412C0.784234 20.8225 0.332059 16.6626 1.38488 12.7556C2.4377 8.84856 4.9188 5.47912 8.3372 3.31401C11.7556 1.1489 15.8622 0.3459 19.8444 1.06391C23.8265 1.78191 27.3941 3.96861 29.841 7.19127C32.288 10.4139 33.436 14.4377 33.058 18.4664C32.68 22.4951 30.8034 26.2351 27.7997 28.9463C24.7959 31.6575 20.8838 33.1423 16.8376 33.107C12.7914 33.0717 8.90587 31.5187 5.94992 28.7555" stroke="#F29E50" stroke-width="2" stroke-miterlimit="10" stroke-linecap="round"/>
<path d="M25.657 25.1665C23.6114 27.3362 20.8256 28.6589 17.8513 28.8726C14.8769 29.0863 11.9307 28.1755 9.59586 26.3205C7.26103 24.4655 5.70775 21.8015 5.24351 18.8558C4.77927 15.9101 5.4379 12.8975 7.08903 10.4143C8.74015 7.93108 11.2634 6.15829 14.1593 5.44685C17.0553 4.7354 20.1128 5.13715 22.7266 6.57258C25.3404 8.00801 27.32 10.3725 28.2736 13.1979C29.2272 16.0234 29.0852 19.1039 27.8757 21.8297" stroke="#7B3CA5" stroke-width="2" stroke-miterlimit="10" stroke-linecap="round"/>
</g>
<defs>
<clipPath id="clip0">
<rect width="34" height="34" fill="white"/>
</clipPath>
</defs>
</svg>
