<svg width="40" height="40" viewBox="0 0 40 40" fill="none" xmlns="http://www.w3.org/2000/svg">
<circle cx="20" cy="20" r="20" fill="#7B3CA5"/>
<path d="M28.2899 11.7091C26.6503 10.0652 23.9839 10.0652 22.3443 11.7091L11.4432 22.6074C11.358 22.6926 11.3052 22.8022 11.289 22.9199L10.4814 28.9028C10.457 29.0733 10.5179 29.2437 10.6356 29.3615C10.7371 29.4629 10.8791 29.5238 11.0212 29.5238C11.0455 29.5238 11.0699 29.5238 11.0942 29.5198L14.6981 29.0327C14.9984 28.9921 15.2095 28.7161 15.1689 28.4157C15.1283 28.1154 14.8523 27.9043 14.552 27.9449L11.6624 28.3345L12.2265 24.1619L16.6178 28.5537C16.7192 28.6552 16.8613 28.7161 17.0033 28.7161C17.1454 28.7161 17.2874 28.6593 17.3889 28.5537L28.2899 17.6555C29.0854 16.8599 29.5237 15.8046 29.5237 14.6802C29.5237 13.5559 29.0854 12.5006 28.2899 11.7091ZM22.5553 13.0486L24.3857 14.8791L14.4384 24.8276L12.608 22.997L22.5553 13.0486ZM17.0074 27.3929L15.2176 25.6029L25.1649 15.6544L26.9547 17.4444L17.0074 27.3929ZM27.7177 16.661L23.3386 12.2814C23.8946 11.8228 24.5886 11.5711 25.3191 11.5711C26.1511 11.5711 26.9303 11.8958 27.5188 12.4803C28.1073 13.0648 28.4279 13.8482 28.4279 14.6802C28.4279 15.4149 28.1763 16.1049 27.7177 16.661Z" fill="white"/>
</svg>
