<svg width="12" height="12" viewBox="0 0 12 12" fill="none" xmlns="http://www.w3.org/2000/svg">
<path d="M0.818213 10.0907H2.72734V11.7273C2.72734 11.8069 2.75281 11.8721 2.80407 11.9231C2.85519 11.9744 2.92054 12 3.00014 12H4.42336C4.49723 12 4.56114 11.9744 4.61513 11.9231C4.66911 11.8721 4.69602 11.8069 4.69602 11.7273V10.0907H8.99999C9.07943 10.0907 9.1448 10.0654 9.19603 10.0141C9.24731 9.96291 9.27277 9.89768 9.27277 9.81805V8.7271C9.27277 8.64794 9.24731 8.58229 9.19603 8.53133C9.14494 8.48005 9.07943 8.45441 8.99999 8.45441H4.69588V7.44869H7.59361C8.72991 7.44869 9.65733 7.10244 10.3763 6.40897C11.0949 5.71622 11.4545 4.82136 11.4545 3.72434C11.4545 2.62805 11.0949 1.73317 10.3763 1.03972C9.65747 0.346949 8.72989 0 7.59361 0H3C2.92037 0 2.85516 0.0256172 2.80393 0.0765927C2.75281 0.127851 2.7272 0.193481 2.7272 0.272662V5.63359H0.818213C0.738609 5.63359 0.673378 5.66052 0.622144 5.71448C0.571051 5.76847 0.54541 5.83238 0.54541 5.90622V7.17598C0.54541 7.2556 0.570886 7.32084 0.622144 7.37207C0.673402 7.42335 0.738468 7.44866 0.818213 7.44866H2.72734V8.45439H0.818213C0.738609 8.45439 0.673378 8.48003 0.622144 8.53131C0.571051 8.58226 0.54541 8.64778 0.54541 8.72707V9.81803C0.54541 9.89765 0.570886 9.96288 0.622144 10.0141C0.673378 10.0654 0.738586 10.0907 0.818213 10.0907ZM4.69588 1.81552H7.42316C8.02536 1.81552 8.51107 1.9916 8.88051 2.34386C9.24976 2.69615 9.43447 3.15653 9.43447 3.72448C9.43447 4.29272 9.24976 4.75324 8.88051 5.10511C8.51107 5.45768 8.02534 5.63375 7.42316 5.63375H4.69588V1.81552Z" fill="#5E6063"/>
</svg>
