<svg width="60" height="60" viewBox="0 0 60 60" fill="none" xmlns="http://www.w3.org/2000/svg">
<circle cx="30" cy="30" r="30" fill="#4767AC"/>
<path d="M46.8144 39.1591C46.772 39.0722 46.7325 39.0001 46.6958 38.9423C46.0885 37.9017 44.9281 36.6245 43.2152 35.1102L43.179 35.0755L43.1609 35.0585L43.1426 35.0411H43.1242C42.3468 34.336 41.8545 33.8618 41.6483 33.6191C41.2711 33.1567 41.1866 32.6887 41.3927 32.2144C41.5384 31.8561 42.0855 31.0994 43.0328 29.9433C43.5311 29.3306 43.9258 28.8396 44.2172 28.4696C46.3191 25.8109 47.2303 24.1119 46.9508 23.372L46.8422 23.1991C46.7693 23.0951 46.581 22.9998 46.2776 22.913C45.9735 22.8263 45.5849 22.812 45.111 22.8697L39.8629 22.9042C39.7779 22.8756 39.6565 22.8782 39.4983 22.913C39.3403 22.9477 39.2613 22.9652 39.2613 22.9652L39.17 23.0086L39.0975 23.0607C39.0367 23.0952 38.9699 23.1559 38.8969 23.2426C38.8244 23.329 38.7637 23.4305 38.7151 23.546C38.1438 24.9447 37.4941 26.2451 36.765 27.4472C36.3155 28.164 35.9027 28.7852 35.5257 29.3111C35.1491 29.8369 34.8333 30.2243 34.5783 30.4726C34.323 30.7212 34.0926 30.9203 33.8857 31.0708C33.6791 31.2213 33.5214 31.2848 33.4122 31.2616C33.3027 31.2383 33.1996 31.2152 33.102 31.1922C32.9321 31.0881 32.7953 30.9465 32.6923 30.7674C32.5887 30.5882 32.519 30.3627 32.4826 30.0911C32.4463 29.8193 32.4249 29.5855 32.4188 29.3889C32.4131 29.1925 32.4157 28.9148 32.428 28.5565C32.4407 28.198 32.4463 27.9555 32.4463 27.8283C32.4463 27.389 32.4553 26.9122 32.4734 26.3978C32.4918 25.8834 32.5066 25.4759 32.5191 25.1756C32.5315 24.8751 32.5372 24.5571 32.5372 24.2219C32.5372 23.8867 32.5158 23.6238 32.4734 23.4329C32.4315 23.2424 32.3673 23.0574 32.2826 22.8781C32.1973 22.6989 32.0726 22.5603 31.909 22.4619C31.745 22.3637 31.5411 22.2857 31.2985 22.2278C30.6546 22.0891 29.8346 22.0141 28.8382 22.0025C26.5787 21.9794 25.1268 22.1182 24.4829 22.4188C24.2278 22.5458 23.9969 22.7193 23.7905 22.9387C23.5718 23.1931 23.5413 23.332 23.6992 23.3548C24.4282 23.4587 24.9443 23.7073 25.2481 24.1002L25.3575 24.3085C25.4427 24.4587 25.5277 24.7247 25.6128 25.1061C25.6977 25.4875 25.7526 25.9094 25.7767 26.3715C25.8373 27.2155 25.8373 27.9379 25.7767 28.5389C25.7159 29.1401 25.6584 29.6082 25.6036 29.9434C25.5488 30.2786 25.4668 30.5503 25.3575 30.7583C25.2481 30.9663 25.1753 31.0935 25.1387 31.1396C25.1023 31.1858 25.0719 31.2149 25.0478 31.2263C24.8899 31.2839 24.7257 31.3132 24.5557 31.3132C24.3855 31.3132 24.179 31.2322 23.9361 31.0703C23.6933 30.9084 23.4412 30.686 23.18 30.4027C22.9187 30.1194 22.6241 29.7236 22.296 29.215C21.9681 28.7065 21.6279 28.1054 21.2756 27.4119L20.9841 26.9089C20.8018 26.5854 20.5529 26.1142 20.237 25.4959C19.921 24.8774 19.6416 24.2791 19.3987 23.7011C19.3017 23.4584 19.1558 23.2736 18.9615 23.1464L18.8703 23.0943C18.8096 23.0481 18.7123 22.9991 18.5788 22.9469C18.445 22.8947 18.3055 22.8573 18.1596 22.8343L13.1665 22.8688C12.6563 22.8688 12.3101 22.9788 12.1278 23.1984L12.0548 23.3023C12.0184 23.3602 12 23.4526 12 23.5799C12 23.707 12.0364 23.8631 12.1094 24.0479C12.8383 25.6779 13.631 27.2499 14.4874 28.7641C15.3438 30.2783 16.088 31.4981 16.7196 32.4222C17.3513 33.3471 17.9952 34.22 18.6513 35.0404C19.3073 35.8612 19.7416 36.3872 19.9541 36.6182C20.1668 36.8497 20.3339 37.0228 20.4554 37.1384L20.911 37.5544C21.2026 37.8319 21.6308 38.1642 22.1957 38.5514C22.7607 38.9388 23.3863 39.3201 24.0727 39.6961C24.7592 40.0715 25.5579 40.3778 26.4691 40.6147C27.3803 40.8519 28.2671 40.947 29.1297 40.9011H31.2254C31.6504 40.8662 31.9724 40.739 32.1913 40.5195L32.2638 40.4326C32.3126 40.3637 32.3582 40.2565 32.4003 40.1122C32.443 39.9678 32.4641 39.8086 32.4641 39.6354C32.4517 39.1385 32.4915 38.6906 32.5823 38.2919C32.6732 37.8932 32.7767 37.5927 32.8925 37.3903C33.0082 37.1881 33.1388 37.0174 33.2841 36.8791C33.4298 36.7404 33.5336 36.6564 33.5944 36.6275C33.655 36.5984 33.7033 36.5787 33.7397 36.5668C34.0313 36.4744 34.3744 36.5639 34.7696 36.8358C35.1645 37.1075 35.5349 37.4429 35.8814 37.8415C36.2276 38.2405 36.6436 38.6881 37.1295 39.1851C37.6157 39.6822 38.0408 40.0517 38.4051 40.2948L38.7694 40.5029C39.0127 40.6417 39.3286 40.7689 39.7174 40.8845C40.1055 41 40.4456 41.0289 40.7376 40.9711L45.4025 40.9019C45.8639 40.9019 46.223 40.8292 46.4776 40.685C46.7328 40.5405 46.8844 40.3813 46.9333 40.2082C46.9821 40.0349 46.9847 39.8382 46.9425 39.6184C46.8993 39.3991 46.8568 39.2457 46.8144 39.1591Z" fill="white"/>
</svg>
