<svg width="13" height="14" viewBox="0 0 13 14" fill="none" xmlns="http://www.w3.org/2000/svg">
<path d="M10.5262 10.2405H9.70667L9.71048 9.79424C9.71048 9.59591 9.88421 9.43367 10.0964 9.43367H10.1487C10.3614 9.43367 10.5356 9.59591 10.5356 9.79424L10.5262 10.2405ZM7.45223 9.28418C7.24433 9.28418 7.07425 9.41516 7.07425 9.57553V11.746C7.07425 11.9061 7.24433 12.0367 7.45223 12.0367C7.66097 12.0367 7.83121 11.9061 7.83121 11.746V9.57553C7.83121 9.415 7.66097 9.28418 7.45223 9.28418ZM12.4444 8.07007V12.1991C12.4444 13.1896 11.5284 14 10.4085 14H2.03608C0.915911 14 0 13.1896 0 12.1991V8.07007C0 7.07965 0.915911 6.26904 2.03608 6.26904H10.4085C11.5284 6.26904 12.4444 7.07965 12.4444 8.07007ZM2.59458 12.6474L2.59392 8.29796L3.63179 8.29827V7.6538L0.865138 7.64991V8.28349L1.72878 8.28582V12.6474H2.59458ZM5.7057 8.94584H4.84039V11.2684C4.84039 11.6044 4.86213 11.7724 4.83906 11.8317C4.76871 12.0118 4.45246 12.2032 4.32917 11.8512C4.30827 11.7896 4.32668 11.6037 4.32635 11.2845L4.32287 8.94584H3.46238L3.46503 11.2478C3.46569 11.6006 3.45657 11.8636 3.46802 11.9834C3.48909 12.1945 3.48162 12.4406 3.69052 12.5812C4.07979 12.8441 4.82596 12.542 5.01262 12.1662L5.01096 12.6457L5.70586 12.6465L5.7057 8.94584ZM8.47384 11.6055L8.47201 9.67245C8.47135 8.93573 7.88347 8.49458 7.08554 9.09067L7.08902 7.65349L6.22471 7.65473L6.22056 12.6154L6.93139 12.6058L6.9961 12.2968C7.90421 13.0779 8.47516 12.5426 8.47384 11.6055ZM11.1819 11.3493L10.5331 11.3526C10.5328 11.3767 10.5318 11.4046 10.5315 11.4349V11.7743C10.5315 11.956 10.3714 12.1039 10.1769 12.1039H10.0498C9.85501 12.1039 9.69489 11.956 9.69489 11.7743V11.7367V11.3633V10.8816H11.1806V10.3574C11.1806 9.97422 11.1701 9.59124 11.1363 9.37222C11.0299 8.67938 9.99256 8.5694 9.46856 8.92407C9.30413 9.03482 9.17852 9.18307 9.10552 9.38218C9.03185 9.58144 8.99518 9.85367 8.99518 10.1995V11.3521C8.99551 13.2683 11.4781 12.9974 11.1819 11.3493ZM7.85377 5.09164C7.89841 5.19338 7.96776 5.27582 8.06184 5.33805C8.15476 5.39933 8.27357 5.43013 8.41593 5.43013C8.54071 5.43013 8.65121 5.39856 8.74745 5.33338C8.84336 5.26851 8.92416 5.1716 8.9902 5.04233L8.97377 5.3606H9.9383V1.51511H9.17902V4.508C9.17902 4.67009 9.03666 4.80278 8.8626 4.80278C8.68954 4.80278 8.54668 4.67009 8.54668 4.508V1.51511H7.75422V4.10884C7.75422 4.43924 7.76069 4.65951 7.77114 4.7712C7.78193 4.88211 7.80914 4.98851 7.85377 5.09164ZM4.93082 2.91978C4.93082 2.55064 4.96367 2.2624 5.02888 2.05458C5.09459 1.84753 5.21256 1.68109 5.38347 1.55556C5.55387 1.4294 5.77207 1.36624 6.03738 1.36624C6.26055 1.36624 6.4517 1.40731 6.61132 1.48773C6.77177 1.56862 6.89555 1.67362 6.98133 1.8032C7.06878 1.93324 7.12818 2.06687 7.15987 2.2036C7.19223 2.3422 7.20815 2.55127 7.20815 2.83329V3.80582C7.20815 4.16251 7.19289 4.42493 7.16319 4.59153C7.13382 4.7586 7.07077 4.91353 6.97304 5.05882C6.8768 5.20256 6.75252 5.31004 6.60186 5.37864C6.44954 5.44787 6.27532 5.48178 6.07853 5.48178C5.85868 5.48178 5.67351 5.45331 5.52085 5.39389C5.3677 5.33478 5.2494 5.24564 5.16511 5.12727C5.07999 5.00873 5.02009 4.86438 4.98392 4.69607C4.94758 4.52791 4.93032 4.27498 4.93032 3.93789L4.93082 2.91978ZM5.68628 4.44733C5.68628 4.66511 5.85918 4.84291 6.06974 4.84291C6.28046 4.84291 6.45269 4.66511 6.45269 4.44733V2.40022C6.45269 2.18276 6.28046 2.00496 6.06974 2.00496C5.85918 2.00496 5.68628 2.18276 5.68628 2.40022V4.44733ZM3.01687 5.481H3.9268L3.9278 2.53167L5.003 0.00513333H4.00777L3.43616 1.88176L2.85642 0H1.87148L3.01537 2.53307L3.01687 5.481Z" fill="white"/>
</svg>
